<?xml version="1.0" encoding="UTF-8"?>
<svg id="Layer_2" data-name="Layer 2" xmlns="http://www.w3.org/2000/svg" viewBox="0 0 237.21 138.3">
  <defs>
    <style>
      .cls-1, .cls-2, .cls-3 {
        fill: #25b816;
      }

      .cls-2, .cls-4, .cls-3 {
        isolation: isolate;
      }

      .cls-2, .cls-3 {
        font-family: Gotu-Regular, Gotu;
        font-size: 21.2px;
      }

      .cls-5 {
        fill: #0eb0ae;
      }

      .cls-3 {
        letter-spacing: .3em;
      }

      .cls-6 {
        fill: #fff;
      }

      .cls-7 {
        letter-spacing: 0em;
      }

      .cls-8 {
        letter-spacing: -.03em;
      }

      .cls-9 {
        opacity: 0;
      }
    </style>
  </defs>
  <g id="Entire">
    <g id="Text">
      <g id="Eureka">
        <g>
          <path class="cls-5" d="M55.5,64.99h-9.8c-.3,0-.5.2-.5.5v4.1c3.5-1.6,7-3.2,10.3-4.6Z"/>
          <path class="cls-5" d="M68.9,69.09v20.9c0,4.5-2,6-5.9,6s-5.1-1.6-5.1-6v-17.3c-4.3,1.6-8.5,3.2-12.6,4.9v12.5c0,10.2,6.3,15.4,17.7,15.4s17.3-5.3,17.3-15.4v-24.4c-3.8,1-7.6,2.1-11.4,3.3v.1Z"/>
        </g>
        <g>
          <path class="cls-5" d="M42.5,95.69h-17.8v-7.5c-.1,0,15.4,0,15.4,0,.3,0,.5-.2.5-.5v-7.7c0-.2,0-.3-.2-.4-6.8,2.9-13.1,5.8-18.8,8.6-1,.6-5,2.7-9.3,4.9l-.2,10.9c0,.3.2.5.5.5h29.8c.3,0,.5-.2.5-.5v-7.8c0-.3-.2-.5-.5-.5h.1Z"/>
          <path class="cls-5" d="M12.5,86.69c3.3-2,6-3.5,6.7-3.9,2-1.1,4-2.2,6-3.2h-.6v-5.8h11.9c2-1,4.1-2,6-2.9v-5.3c0-.3-.2-.5-.5-.5H12.6c-.3,0-.5.2-.5.5l.3,19.9v1.2h.1Z"/>
        </g>
        <path class="cls-5" d="M223.3,65.39l12.5,38.5c.1.4-.1.6-.5.6h-11.7c-.3,0-.5-.2-.6-.5l-2.3-7.7h-12.8l-2.1,7.7c0,.3-.3.5-.6.5h-11.7c-.3,0-.6-.2-.5-.6l13-38.5c.1-.3.3-.4.6-.4h15.9c.3,0,.5.1.6.4h.2ZM214.2,73.99l-3.6,12.9h7.3l-3.8-12.9h.1Z"/>
        <path class="cls-5" d="M176,64.99h12.9c.4,0,.6.3.3.6l-12.5,15.8,16.1,22.5c.2.3.1.6-.3.6h-13.6c-.2,0-.5-.1-.6-.3l-9.1-13.4-2.2,2.9v10.4c0,.3-.2.5-.5.5h-11c-.3,0-.5-.2-.5-.5l.2-18.9-.2-19.6c0-.3.2-.5.5-.5h11c.3,0,.5.2.5.5v12.6l8.4-12.8c.1-.2.4-.3.6-.3h0v-.1Z"/>
        <path class="cls-5" d="M152.8,96.19v7.8c0,.3-.2.5-.5.5h-29.8c-.3,0-.5-.2-.5-.5l.3-18.6-.3-19.9c0-.3.2-.5.5-.5h29.4c.3,0,.5.2.5.5v7.7c0,.3-.2.5-.5.5h-17.3v5.8c-.1,0,15.4,0,15.4,0,.3,0,.5.2.5.5v7.7c0,.3-.2.5-.5.5h-15.5v7.5h17.9c.3,0,.5.2.5.5h-.1Z"/>
        <path class="cls-5" d="M120.5,103.89c.2.3,0,.6-.3.6h-13.3c-.3,0-.5-.1-.6-.3l-6.4-10.7-1.5-2.1h-2.5v12.6c.1.3-.1.5-.4.5h-11.6c-.3,0-.5-.2-.5-.5l.2-18.6-.2-19.9c0-.3.2-.5.5-.5h18.2c11.1,0,17.2,4.5,17.2,13.3s-2.8,9.4-8.1,11.6l9.3,14h0ZM95.9,73.59v9.3h6.7c2,0,4.6-1.2,4.6-4.3s-1.8-5-5-5h-6.4.1Z"/>
      </g>
      <g id="Cleaning_Co." data-name="Cleaning Co." class="cls-4">
        <g class="cls-4">
          <text class="cls-3" transform="translate(10.3 126.79)"><tspan x="0" y="0">CLEANING C</tspan></text>
          <text class="cls-2" transform="translate(215.8 126.79)"><tspan class="cls-8" x="0" y="0">O</tspan><tspan class="cls-7" x="16.66" y="0">.</tspan></text>
        </g>
      </g>
    </g>
    <g id="Stroke">
      <path class="cls-1" d="M214.3,53.29c-38.2-20.5-91.8-9.2-91.8-9.2,0,0-45.9,9.5-102.4,40.3,0,0-16.8,9.6-20.1,12.7,0,0,19.6-10.1,20.6-10.8h0c28.6-14,66.8-28.6,103.2-29.2,57.5-.9,75.8,4.8,80.7,6.9s0,0,.1,0c.5-.7,1.3-1.2,2.2-1.2h15.6c1.2,0,2.2.7,2.8,1.7h0l11.1,34.2c0,.1.2.1.2,0,2-11.9-1.4-35-22.2-45.7v.3Z"/>
    </g>
    <g id="Stars">
      <path class="cls-1" d="M145.48,17.17h0c.1.3.3.5.6.6h0c.1,0,.1.2,0,.2h0c-.3.1-.5.3-.6.6h0c0,.1-.2.1-.2,0h0c-.1-.3-.3-.5-.6-.6h0c-.1,0-.1-.2,0-.2h0c.3-.1.5-.3.6-.6h0c0-.1.2-.1.2,0Z"/>
      <path class="cls-1" d="M143.58,18.07h0c.3.8.9,1.4,1.6,1.6h0c.3.1.3.5,0,.6h0c-.8.3-1.4.9-1.6,1.6h0c-.1.3-.5.3-.6,0h0c-.3-.8-.9-1.4-1.6-1.6h0c-.3-.1-.3-.5,0-.6h0c.8-.3,1.4-.9,1.6-1.6h0c.1-.3.5-.3.6,0Z"/>
      <path class="cls-1" d="M139.58,11.97h0c.6,1.5,1.8,2.7,3.3,3.3h0c.5.2.5.9,0,1.1h0c-1.5.6-2.7,1.8-3.3,3.3h0c-.2.5-.9.5-1.1,0h0c-.6-1.5-1.8-2.7-3.3-3.3h0c-.5-.2-.5-.9,0-1.1h0c1.5-.6,2.7-1.8,3.3-3.3h0c.2-.5.9-.5,1.1,0Z"/>
      <path class="cls-5" d="M146.8,26.29l-6.3-6.1-.05-.05c-.27.55-.81.91-1.42.91h0c-.65,0-1.23-.4-1.48-1-.5-1.24-1.5-2.24-2.74-2.74-.61-.24-1-.82-1-1.48,0-.61.36-1.15.9-1.42l-4.61-4.52c-.3-.3-.7-.3-1,0l-1.8,1.8c-.5.4-1.2.1-1.2-.5v-.7c0-.4-.3-.7-.7-.7h-2.8c-.4,0-.7.3-.7.7v6.3c0,.2,0,.4-.2.5l-9.3,9.1c-.5.4-.1,1.2.5,1.2h1.1c.4,0,.7.3.7.7v15.7c5-1.3,7.8-1.9,7.8-1.9.1,0,1-.2,2.4-.5v-8.9c0-.4.3-.7.7-.7h8c.4,0,.7.3.7.7v7.5c3-.3,6.4-.7,10.2-.9v-11.1c0-.4.3-.7.7-.7h1.1c.6,0,1-.8.5-1.2ZM124.6,28.39c0-.2,0-.3.2-.5,0,.1-.2.3-.2.5ZM134,28.39s0-.07,0-.11c0,0,0,0,0,0v.1Z"/>
    </g>
    <g id="Building_Right" data-name="Building Right">
      <path class="cls-5" d="M91.9,50.89c4.4-1.5,8.4-2.7,12-3.8V10.19c0-.5-.2-.9-.6-1.1L84.9.09c-.7-.3-1.5.2-1.5,1.1v52.7c3-1.1,5.9-2.1,8.5-3h0Z"/>
    </g>
    <g id="Building_Left" data-name="Building Left">
      <path class="cls-5" d="M80.4,54.89V21.59c0-.6-.5-1-1-.7l-10.2,6.6c-.2.1-.4.4-.4.7v31.1c4.1-1.6,7.9-3.1,11.5-4.4h.1Z"/>
    </g>
    <g id="Layer_6" data-name="Layer 6">
      <g class="cls-9">
        <path class="cls-6" d="M207.5,53.69h-.4c-9.4-4-18.4-5.8-18.5-5.9-.5-.1-.9-.6-.8-1.2.1-.5.6-.9,1.2-.8,0,0,9.4,1.9,18.9,6,.5.2.7.8.5,1.3-.2.4-.5.6-.9.6h0Z"/>
      </g>
    </g>
  </g>
</svg>